<svg width="16" height="16" viewBox="0 0 16 16" fill="none" xmlns="http://www.w3.org/2000/svg">
<g clip-path="url(#clip0_6960_36685)">
<path d="M5.33333 11.6397C5.09106 11.6397 4.858 11.5495 4.6792 11.3874V11.3815L4.64982 11.3522C4.5598 11.2624 4.48838 11.1558 4.43964 11.0383C4.39091 10.9209 4.36583 10.795 4.36583 10.6678C4.36583 10.5407 4.39091 10.4148 4.43964 10.2973C4.48838 10.1799 4.5598 10.0732 4.64982 9.98342L4.64989 9.98335L12.4291 2.20842L12.5999 2.03769H12.3584H9.6C9.34366 2.03766 9.09781 1.9358 8.91655 1.75452C8.73529 1.57324 8.63346 1.32738 8.63346 1.07102C8.63346 0.814668 8.73529 0.56881 8.91655 0.387528C9.09781 0.206246 9.34366 0.104388 9.60001 0.104357H14.9333C15.1897 0.104357 15.4356 0.206202 15.6169 0.387487C15.7982 0.568772 15.9 0.814648 15.9 1.07102V6.40436C15.9 6.6607 15.7981 6.90655 15.6168 7.08781C15.4355 7.26907 15.1897 7.37089 14.9333 7.37089C14.677 7.37089 14.4311 7.26907 14.2498 7.08781C14.0686 6.90655 13.9667 6.6607 13.9667 6.40435V3.64382V3.40224L13.7959 3.57315L6.01726 11.3593C6.01716 11.3594 6.01707 11.3595 6.01698 11.3596C5.83473 11.5391 5.58917 11.6397 5.33333 11.6397ZM3.2 15.899C2.37783 15.899 1.58933 15.5724 1.00797 14.9911C0.426606 14.4097 0.1 13.6212 0.1 12.799V3.19902C0.1 2.37685 0.426606 1.58836 1.00797 1.00699C1.58933 0.42563 2.37783 0.0990234 3.2 0.0990234H5.33333C5.58971 0.0990234 5.83558 0.200868 6.01687 0.382154C6.19816 0.563439 6.3 0.809314 6.3 1.06569C6.3 1.32207 6.19816 1.56794 6.01687 1.74923C5.83558 1.93051 5.58971 2.03236 5.33333 2.03236H3.2C2.89058 2.03236 2.59383 2.15527 2.37504 2.37407C2.15625 2.59286 2.03333 2.8896 2.03333 3.19902V12.799C2.03333 13.1084 2.15625 13.4052 2.37504 13.624C2.59383 13.8428 2.89058 13.9657 3.2 13.9657H12.8C13.1094 13.9657 13.4062 13.8428 13.625 13.624C13.8438 13.4052 13.9667 13.1084 13.9667 12.799V10.6657C13.9667 10.4093 14.0686 10.1635 14.2498 9.98224C14.4311 9.80098 14.677 9.69915 14.9333 9.69915C15.1897 9.69915 15.4355 9.80098 15.6168 9.98224C15.7981 10.1635 15.9 10.4093 15.9 10.6657V12.799C15.9 13.6212 15.5734 14.4097 14.992 14.9911C14.4107 15.5724 13.6222 15.899 12.8 15.899H3.2Z" fill="currentColor" stroke="white" stroke-width="0.2"/>
</g>
<defs>
<clipPath id="clip0_6960_36685">
<rect width="16" height="16" fill="white"/>
</clipPath>
</defs>
</svg>
